# The Great Editor v0.0.1
mtllib floor_1.mtl
o floor_1
v 16.807179903375943 89.04405380528954 0
v 16.807179903375943 89.04405380528954 -0.1
v 15.681327695666443 97.02021774341085 0
v 15.681327695666443 97.02021774341085 -0.1
v 3.293831884520516 96.96111200484344 0
v 3.293831884520516 96.96111200484344 -0.1
v 0.7238536847847201 66.77240635538996 0
v 0.7238536847847201 66.77240635538996 -0.1
v -1.4761316942485498 66.85551661739717 0
v -1.4761316942485498 66.85551661739717 -0.1
v -1.4704138835017533 24.641456516148523 0
v -1.4704138835017533 24.641456516148523 -0.1
v 0.37593277327634533 10.15045904614621 0
v 0.37593277327634533 10.15045904614621 -0.1
v 0.3480248266798065 6.093999643168445 0
v 0.3480248266798065 6.093999643168445 -0.1
v 6.82008224136368 6.142986770025402 0
v 6.82008224136368 6.142986770025402 -0.1
v 6.798246931829105 -3.4014611510562816 0
v 6.798246931829105 -3.4014611510562816 -0.1
v 1.647489829354615 -8.814102130873636 0
v 1.647489829354615 -8.814102130873636 -0.1
v 1.653300030722788 -11.92526186062993 0
v 1.653300030722788 -11.92526186062993 -0.1
v 4.8599025745444475 -11.912931335337177 0
v 4.8599025745444475 -11.912931335337177 -0.1
v 12.1264213777056 -19.787994964547877 0
v 12.1264213777056 -19.787994964547877 -0.1
v 12.124018502655776 -23.591440768728788 0
v 12.124018502655776 -23.591440768728788 -0.1
v 15.715564830235223 -27.52178227810201 0
v 15.715564830235223 -27.52178227810201 -0.1
v 19.6616279936092 -27.716675234735035 0
v 19.6616279936092 -27.716675234735035 -0.1
v 27.079756713309383 -35.81070006575004 0
v 27.079756713309383 -35.81070006575004 -0.1
v 27.070198940725508 -38.03485521757614 0
v 27.070198940725508 -38.03485521757614 -0.1
v 38.468291579731535 -38.097293782074814 0
v 38.468291579731535 -38.097293782074814 -0.1
v 38.66159394481719 -37.278072975170915 0
v 38.66159394481719 -37.278072975170915 -0.1
v 55.01875509987551 -36.1971812271035 0
v 55.01875509987551 -36.1971812271035 -0.1
v 51.42469078288294 -29.927312934209027 0
v 51.42469078288294 -29.927312934209027 -0.1
v 51.077221002477415 -29.097387259638467 0
v 51.077221002477415 -29.097387259638467 -0.1
v 51.34335041908026 -19.582194520708427 0
v 51.34335041908026 -19.582194520708427 -0.1
v 41.46259373375092 -19.602511474495984 0
v 41.46259373375092 -19.602511474495984 -0.1
v 27.580831047444352 -19.536410987793445 0
v 27.580831047444352 -19.536410987793445 -0.1
v 22.1713610216997 -13.854036262090759 0
v 22.1713610216997 -13.854036262090759 -0.1
v 22.192533565749628 -8.927049088806413 0
v 22.192533565749628 -8.927049088806413 -0.1
v 22.32905088305689 13.0898116216745 0
v 22.32905088305689 13.0898116216745 -0.1
v 21.79393325116978 13.684988393800026 0
v 21.79393325116978 13.684988393800026 -0.1
v 21.861532384215963 23.996103832223213 0
v 21.861532384215963 23.996103832223213 -0.1
v 3.7375032328601514 24.133702328012973 0
v 3.7375032328601514 24.133702328012973 -0.1
v 3.8846781753571684 47.036649909465275 0
v 3.8846781753571684 47.036649909465275 -0.1
v 18.723459119388565 47.09465049681194 0
v 18.723459119388565 47.09465049681194 -0.1
v 15.52225666173554 73.88063779305948 0
v 15.52225666173554 73.88063779305948 -0.1
v 16.449803340319114 73.97263078625684 0
v 16.449803340319114 73.97263078625684 -0.1
v 14.735601978013726 88.75970047695466 0
v 14.735601978013726 88.75970047695466 -0.1
v 14.485567239019625 -8.614268142632035 0
v 14.485567239019625 -8.614268142632035 -0.1
v 18.285567239019624 -5.914268142632034 0
v 18.285567239019624 -5.914268142632034 -0.1
v 18.285567239019624 -8.614268142632035 0
v 18.285567239019624 -8.614268142632035 -0.1
v 14.485567239019625 -5.914268142632034 0
v 14.485567239019625 -5.914268142632034 -0.1
vt 16.807179903375943 89.04405380528954 0
vt 15.681327695666443 97.02021774341085 0
vt 3.293831884520516 96.96111200484344 0
vt 0.7238536847847201 66.77240635538996 0
vt -1.4761316942485498 66.85551661739717 0
vt -1.4704138835017533 24.641456516148523 0
vt 0.37593277327634533 10.15045904614621 0
vt 0.3480248266798065 6.093999643168445 0
vt 6.82008224136368 6.142986770025402 0
vt 6.798246931829105 -3.4014611510562816 0
vt 1.647489829354615 -8.814102130873636 0
vt 1.653300030722788 -11.92526186062993 0
vt 4.8599025745444475 -11.912931335337177 0
vt 12.1264213777056 -19.787994964547877 0
vt 12.124018502655776 -23.591440768728788 0
vt 15.715564830235223 -27.52178227810201 0
vt 19.6616279936092 -27.716675234735035 0
vt 27.079756713309383 -35.81070006575004 0
vt 27.070198940725508 -38.03485521757614 0
vt 38.468291579731535 -38.097293782074814 0
vt 38.66159394481719 -37.278072975170915 0
vt 55.01875509987551 -36.1971812271035 0
vt 51.42469078288294 -29.927312934209027 0
vt 51.077221002477415 -29.097387259638467 0
vt 51.34335041908026 -19.582194520708427 0
vt 41.46259373375092 -19.602511474495984 0
vt 27.580831047444352 -19.536410987793445 0
vt 22.1713610216997 -13.854036262090759 0
vt 22.192533565749628 -8.927049088806413 0
vt 22.32905088305689 13.0898116216745 0
vt 21.79393325116978 13.684988393800026 0
vt 21.861532384215963 23.996103832223213 0
vt 3.7375032328601514 24.133702328012973 0
vt 3.8846781753571684 47.036649909465275 0
vt 18.723459119388565 47.09465049681194 0
vt 15.52225666173554 73.88063779305948 0
vt 16.449803340319114 73.97263078625684 0
vt 14.735601978013726 88.75970047695466 0
vt 14.485567239019625 -8.614268142632035 0
vt 18.285567239019624 -5.914268142632034 0
vt 18.285567239019624 -8.614268142632035 0
vt 14.485567239019625 -5.914268142632034 0
vn 0 0 1
vn 0 0 -1
usemtl floor_1
s off
f 7/4/1 75/38/1 5/3/1
f 6/3/2 76/38/2 8/4/2
f 75/38/1 3/2/1 5/3/1
f 6/3/2 4/2/2 76/38/2
f 75/38/1 1/1/1 3/2/1
f 4/2/2 2/1/2 76/38/2
f 41/21/1 35/18/1 39/20/1
f 40/20/2 36/18/2 42/21/2
f 35/18/1 37/19/1 39/20/1
f 40/20/2 38/19/2 36/18/2
f 33/17/1 29/15/1 31/16/1
f 32/16/2 30/15/2 34/17/2
f 33/17/1 27/14/1 29/15/1
f 30/15/2 28/14/2 34/17/2
f 25/13/1 21/11/1 23/12/1
f 24/12/2 22/11/2 26/13/2
f 13/7/1 65/33/1 11/6/1
f 12/6/2 66/33/2 14/7/2
f 65/33/1 67/34/1 11/6/1
f 12/6/2 68/34/2 66/33/2
f 67/34/1 9/5/1 11/6/1
f 12/6/2 10/5/2 68/34/2
f 67/34/1 7/4/1 9/5/1
f 10/5/2 8/4/2 68/34/2
f 67/34/1 69/35/1 7/4/1
f 8/4/2 70/35/2 68/34/2
f 69/35/1 71/36/1 7/4/1
f 8/4/2 72/36/2 70/35/2
f 71/36/1 75/38/1 7/4/1
f 8/4/2 76/38/2 72/36/2
f 71/36/1 73/37/1 75/38/1
f 76/38/2 74/37/2 72/36/2
f 51/26/1 47/24/1 49/25/1
f 50/25/2 48/24/2 52/26/2
f 45/23/1 41/21/1 43/22/1
f 44/22/2 42/21/2 46/23/2
f 45/23/1 47/24/1 41/21/1
f 42/21/2 48/24/2 46/23/2
f 47/24/1 51/26/1 41/21/1
f 42/21/2 52/26/2 48/24/2
f 51/26/1 53/27/1 41/21/1
f 42/21/2 54/27/2 52/26/2
f 53/27/1 35/18/1 41/21/1
f 42/21/2 36/18/2 54/27/2
f 53/27/1 33/17/1 35/18/1
f 36/18/2 34/17/2 54/27/2
f 53/27/1 55/28/1 33/17/1
f 34/17/2 56/28/2 54/27/2
f 55/28/1 27/14/1 33/17/1
f 34/17/2 28/14/2 56/28/2
f 55/28/1 77/39/1 27/14/1
f 28/14/2 78/39/2 56/28/2
f 77/39/1 25/13/1 27/14/1
f 28/14/2 26/13/2 78/39/2
f 77/39/1 19/10/1 25/13/1
f 26/13/2 20/10/2 78/39/2
f 19/10/1 21/11/1 25/13/1
f 26/13/2 22/11/2 20/10/2
f 17/9/1 13/7/1 15/8/1
f 16/8/2 14/7/2 18/9/2
f 17/9/1 65/33/1 13/7/1
f 14/7/2 66/33/2 18/9/2
f 17/9/1 61/31/1 65/33/1
f 66/33/2 62/31/2 18/9/2
f 61/31/1 63/32/1 65/33/1
f 66/33/2 64/32/2 62/31/2
f 61/31/1 17/9/1 59/30/1
f 60/30/2 18/9/2 62/31/2
f 17/9/1 79/40/1 59/30/1
f 60/30/2 80/40/2 18/9/2
f 79/40/1 57/29/1 59/30/1
f 60/30/2 58/29/2 80/40/2
f 57/29/1 81/41/1 55/28/1
f 56/28/2 82/41/2 58/29/2
f 81/41/1 77/39/1 55/28/1
f 56/28/2 78/39/2 82/41/2
f 83/42/1 19/10/1 77/39/1
f 78/39/2 20/10/2 84/42/2
f 83/42/1 17/9/1 19/10/1
f 20/10/2 18/9/2 84/42/2
f 83/42/1 79/40/1 17/9/1
f 18/9/2 80/40/2 84/42/2
f 81/41/1 57/29/1 79/40/1
f 80/40/2 58/29/2 82/41/2
