# The Great Editor v0.0.1
mtllib floor_1.mtl
o floor_1
v 1.6818116501316986 86.41529847729345 0
v 1.6818116501316986 86.41529847729345 -0.1
v 1.3946298165804782 81.31406213727057 0
v 1.3946298165804782 81.31406213727057 -0.1
v 8.224840012802561 81.37916045235804 0
v 8.224840012802561 81.37916045235804 -0.1
v 10.134968101411319 66.56238241237133 0
v 10.134968101411319 66.56238241237133 -0.1
v -1.6323909839575408 66.53715180277509 0
v -1.6323909839575408 66.53715180277509 -0.1
v -1.6011959590988951 24.459897493855863 0
v -1.6011959590988951 24.459897493855863 -0.1
v 0.28354287859768745 10.411209708377143 0
v 0.28354287859768745 10.411209708377143 -0.1
v 0.3249414602883214 6.937045581124352 0
v 0.3249414602883214 6.937045581124352 -0.1
v 0.11433848871403796 -24.09490076553614 0
v 0.11433848871403796 -24.09490076553614 -0.1
v 11.029657079918342 -35.642895544791486 0
v 11.029657079918342 -35.642895544791486 -0.1
v 14.76880470874595 -32.16870593987767 0
v 14.76880470874595 -32.16870593987767 -0.1
v 17.778189326811358 -35.330690651072516 0
v 17.778189326811358 -35.330690651072516 -0.1
v 13.984203634653772 -38.74987528523103 0
v 13.984203634653772 -38.74987528523103 -0.1
v 14.36647313089712 -39.46399748703405 0
v 14.36647313089712 -39.46399748703405 -0.1
v 38.55965854083513 -39.387761196182836 0
v 38.55965854083513 -39.387761196182836 -0.1
v 67.6980751076122 -36.14225030357461 0
v 67.6980751076122 -36.14225030357461 -0.1
v 67.64204269328651 -26.58375344160595 0
v 67.64204269328651 -26.58375344160595 -0.1
v 68.57444420413242 -26.58610170724387 0
v 68.57444420413242 -26.58610170724387 -0.1
v 68.69077866029855 -21.568820317058965 0
v 68.69077866029855 -21.568820317058965 -0.1
v 23.106519616727667 -21.566273349125993 0
v 23.106519616727667 -21.566273349125993 -0.1
v 20.07943205435496 -18.41850943652389 0
v 20.07943205435496 -18.41850943652389 -0.1
v 20.35904904361693 58.0108714966064 0
v 20.35904904361693 58.0108714966064 -0.1
v 15.686044176207485 57.92596511371889 0
v 15.686044176207485 57.92596511371889 -0.1
v 12.27538757638781 85.58437997588625 0
v 12.27538757638781 85.58437997588625 -0.1
v 12.185526145303307 85.67568528129885 0
v 12.185526145303307 85.67568528129885 -0.1
v 15.136965722544087 62.37866775874698 0
v 15.136965722544087 62.37866775874698 -0.1
v 18.285567239019624 -5.914268142632034 0
v 18.285567239019624 -5.914268142632034 -0.1
v 20.12309097731945 -6.484955387499319 0
v 20.12309097731945 -6.484955387499319 -0.1
v 20.103584574877118 -11.816756816429304 0
v 20.103584574877118 -11.816756816429304 -0.1
v 14.485567239019625 -8.614268142632035 0
v 14.485567239019625 -8.614268142632035 -0.1
v 14.485567239019625 -5.914268142632034 0
v 14.485567239019625 -5.914268142632034 -0.1
v 18.285567239019624 -8.614268142632035 0
v 18.285567239019624 -8.614268142632035 -0.1
v 20.09749155977776 -13.48219700763143 0
v 20.09749155977776 -13.48219700763143 -0.1
v 20.100082887240497 -12.773894002529667 0
v 20.100082887240497 -12.773894002529667 -0.1
v 20.10022112119297 -12.736109691071281 0
v 20.10022112119297 -12.736109691071281 -0.1
v 20.100623607773148 -12.626095631345999 0
v 20.100623607773148 -12.626095631345999 -0.1
v 20.10152199887093 -12.380533029372017 0
v 20.10152199887093 -12.380533029372017 -0.1
vt 1.6818116501316986 86.41529847729345 0
vt 1.3946298165804782 81.31406213727057 0
vt 8.224840012802561 81.37916045235804 0
vt 10.134968101411319 66.56238241237133 0
vt -1.6323909839575408 66.53715180277509 0
vt -1.6011959590988951 24.459897493855863 0
vt 0.28354287859768745 10.411209708377143 0
vt 0.3249414602883214 6.937045581124352 0
vt 0.11433848871403796 -24.09490076553614 0
vt 11.029657079918342 -35.642895544791486 0
vt 14.76880470874595 -32.16870593987767 0
vt 17.778189326811358 -35.330690651072516 0
vt 13.984203634653772 -38.74987528523103 0
vt 14.36647313089712 -39.46399748703405 0
vt 38.55965854083513 -39.387761196182836 0
vt 67.6980751076122 -36.14225030357461 0
vt 67.64204269328651 -26.58375344160595 0
vt 68.57444420413242 -26.58610170724387 0
vt 68.69077866029855 -21.568820317058965 0
vt 23.106519616727667 -21.566273349125993 0
vt 20.07943205435496 -18.41850943652389 0
vt 20.35904904361693 58.0108714966064 0
vt 15.686044176207485 57.92596511371889 0
vt 12.27538757638781 85.58437997588625 0
vt 12.185526145303307 85.67568528129885 0
vt 15.136965722544087 62.37866775874698 0
vt 18.285567239019624 -5.914268142632034 0
vt 20.12309097731945 -6.484955387499319 0
vt 20.103584574877118 -11.816756816429304 0
vt 14.485567239019625 -8.614268142632035 0
vt 14.485567239019625 -5.914268142632034 0
vt 18.285567239019624 -8.614268142632035 0
vt 20.09749155977776 -13.48219700763143 0
vt 20.100082887240497 -12.773894002529667 0
vt 20.10022112119297 -12.736109691071281 0
vt 20.100623607773148 -12.626095631345999 0
vt 20.10152199887093 -12.380533029372017 0
vn 0 0 1
vn 0 0 -1
usemtl floor_1
s off
f 3/2/1 5/3/1 1/1/1
f 2/1/2 6/3/2 4/2/2
f 5/3/1 49/25/1 1/1/1
f 2/1/2 50/25/2 6/3/2
f 5/3/1 47/24/1 49/25/1
f 50/25/2 48/24/2 6/3/2
f 5/3/1 7/4/1 47/24/1
f 48/24/2 8/4/2 6/3/2
f 7/4/1 51/26/1 47/24/1
f 48/24/2 52/26/2 8/4/2
f 53/27/1 55/28/1 43/22/1
f 44/22/2 56/28/2 54/27/2
f 57/29/1 55/28/1 53/27/1
f 54/27/2 56/28/2 58/29/2
f 39/20/1 29/15/1 37/19/1
f 38/19/2 30/15/2 40/20/2
f 29/15/1 33/17/1 37/19/1
f 38/19/2 34/17/2 30/15/2
f 33/17/1 35/18/1 37/19/1
f 38/19/2 36/18/2 34/17/2
f 31/16/1 33/17/1 29/15/1
f 30/15/2 34/17/2 32/16/2
f 39/20/1 23/12/1 29/15/1
f 30/15/2 24/12/2 40/20/2
f 23/12/1 27/14/1 29/15/1
f 30/15/2 28/14/2 24/12/2
f 23/12/1 25/13/1 27/14/1
f 28/14/2 26/13/2 24/12/2
f 19/10/1 21/11/1 17/9/1
f 18/9/2 22/11/2 20/10/2
f 21/11/1 41/21/1 17/9/1
f 18/9/2 42/21/2 22/11/2
f 41/21/1 59/30/1 17/9/1
f 18/9/2 60/30/2 42/21/2
f 59/30/1 15/8/1 17/9/1
f 18/9/2 16/8/2 60/30/2
f 13/7/1 53/27/1 11/6/1
f 12/6/2 54/27/2 14/7/2
f 53/27/1 43/22/1 11/6/1
f 12/6/2 44/22/2 54/27/2
f 43/22/1 45/23/1 11/6/1
f 12/6/2 46/23/2 44/22/2
f 45/23/1 9/5/1 11/6/1
f 12/6/2 10/5/2 46/23/2
f 45/23/1 7/4/1 9/5/1
f 10/5/2 8/4/2 46/23/2
f 45/23/1 51/26/1 7/4/1
f 8/4/2 52/26/2 46/23/2
f 13/7/1 61/31/1 53/27/1
f 54/27/2 62/31/2 14/7/2
f 63/32/1 57/29/1 53/27/1
f 54/27/2 58/29/2 64/32/2
f 63/32/1 65/33/1 67/34/1
f 68/34/2 66/33/2 64/32/2
f 67/34/1 69/35/1 63/32/1
f 64/32/2 70/35/2 68/34/2
f 69/35/1 71/36/1 63/32/1
f 64/32/2 72/36/2 70/35/2
f 71/36/1 73/37/1 63/32/1
f 64/32/2 74/37/2 72/36/2
f 73/37/1 57/29/1 63/32/1
f 64/32/2 58/29/2 74/37/2
f 41/21/1 65/33/1 63/32/1
f 64/32/2 66/33/2 42/21/2
f 41/21/1 21/11/1 39/20/1
f 40/20/2 22/11/2 42/21/2
f 21/11/1 23/12/1 39/20/1
f 40/20/2 24/12/2 22/11/2
f 63/32/1 59/30/1 41/21/1
f 42/21/2 60/30/2 64/32/2
f 61/31/1 15/8/1 59/30/1
f 60/30/2 16/8/2 62/31/2
f 61/31/1 13/7/1 15/8/1
f 16/8/2 14/7/2 62/31/2
