# The Great Editor v0.0.1
mtllib floor_1.mtl
o floor_1
v 8.66048519819831 -12.166389946106795 0
v 8.66048519819831 -12.166389946106795 -0.1
v 8.644299439494256 -13.339368408759054 0
v 8.644299439494256 -13.339368408759054 -0.1
v 11.791088582004027 -13.306996891350947 0
v 11.791088582004027 -13.306996891350947 -0.1
v 11.659425480499122 -27.730464070229473 0
v 11.659425480499122 -27.730464070229473 -0.1
v 34.306551679685846 -27.71030286201916 0
v 34.306551679685846 -27.71030286201916 -0.1
v 34.296455299987414 -28.819958093250293 0
v 34.296455299987414 -28.819958093250293 -0.1
v 44.83821154786976 -28.749346537734365 0
v 44.83821154786976 -28.749346537734365 -0.1
v 44.82814671935789 -25.208514626306606 0
v 44.82814671935789 -25.208514626306606 -0.1
v 44.483229147910095 -25.217664470408312 0
v 44.483229147910095 -25.217664470408312 -0.1
v 44.4961020320256 -22.266934401167532 0
v 44.4961020320256 -22.266934401167532 -0.1
v 44.939648612652476 -22.266934401167532 0
v 44.939648612652476 -22.266934401167532 -0.1
v 44.94122617198036 -19.441367889000784 0
v 44.94122617198036 -19.441367889000784 -0.1
v 49.32652559162255 -19.44818294529723 0
v 49.32652559162255 -19.44818294529723 -0.1
v 49.29907605931742 -12.143326028733183 0
v 49.29907605931742 -12.143326028733183 -0.1
vt 8.66048519819831 -12.166389946106795 0
vt 8.644299439494256 -13.339368408759054 0
vt 11.791088582004027 -13.306996891350947 0
vt 11.659425480499122 -27.730464070229473 0
vt 34.306551679685846 -27.71030286201916 0
vt 34.296455299987414 -28.819958093250293 0
vt 44.83821154786976 -28.749346537734365 0
vt 44.82814671935789 -25.208514626306606 0
vt 44.483229147910095 -25.217664470408312 0
vt 44.4961020320256 -22.266934401167532 0
vt 44.939648612652476 -22.266934401167532 0
vt 44.94122617198036 -19.441367889000784 0
vt 49.32652559162255 -19.44818294529723 0
vt 49.29907605931742 -12.143326028733183 0
vn 0 0 1
vn 0 0 -1
usemtl floor_1
s off
f 3/2/1 5/3/1 1/1/1
f 2/1/2 6/3/2 4/2/2
f 5/3/1 27/14/1 1/1/1
f 2/1/2 28/14/2 6/3/2
f 5/3/1 23/12/1 27/14/1
f 28/14/2 24/12/2 6/3/2
f 23/12/1 25/13/1 27/14/1
f 28/14/2 26/13/2 24/12/2
f 13/7/1 9/5/1 11/6/1
f 12/6/2 10/5/2 14/7/2
f 9/5/1 5/3/1 7/4/1
f 8/4/2 6/3/2 10/5/2
f 9/5/1 23/12/1 5/3/1
f 6/3/2 24/12/2 10/5/2
f 9/5/1 19/10/1 23/12/1
f 24/12/2 20/10/2 10/5/2
f 19/10/1 21/11/1 23/12/1
f 24/12/2 22/11/2 20/10/2
f 15/8/1 17/9/1 13/7/1
f 14/7/2 18/9/2 16/8/2
f 17/9/1 9/5/1 13/7/1
f 14/7/2 10/5/2 18/9/2
f 17/9/1 19/10/1 9/5/1
f 10/5/2 20/10/2 18/9/2
