# The Great Editor v0.0.1
mtllib floor_1.mtl
o floor_1
v 22.229769496912876 -4.672417963220423 0
v 22.229769496912876 -4.672417963220423 -0.1
v 22.285910886903473 -1.6709975966271529 0
v 22.285910886903473 -1.6709975966271529 -0.1
v 14.756748095346286 -1.5778043256192373 0
v 14.756748095346286 -1.5778043256192373 -0.1
v 14.755695301006025 -2.5402234003932 0
v 14.755695301006025 -2.5402234003932 -0.1
v 11.58536814350817 -2.649970516125879 0
v 11.58536814350817 -2.649970516125879 -0.1
v 11.606372761742843 -4.515574319771128 0
v 11.606372761742843 -4.515574319771128 -0.1
v 14.365784314256294 -4.684574675408379 0
v 14.365784314256294 -4.684574675408379 -0.1
v 14.364694806164334 -5.680555874891773 0
v 14.364694806164334 -5.680555874891773 -0.1
v 17.746833024617008 -5.642737291951679 0
v 17.746833024617008 -5.642737291951679 -0.1
v 17.72720943127136 -4.688251752714056 0
v 17.72720943127136 -4.688251752714056 -0.1
vt 22.229769496912876 -4.672417963220423 0
vt 22.285910886903473 -1.6709975966271529 0
vt 14.756748095346286 -1.5778043256192373 0
vt 14.755695301006025 -2.5402234003932 0
vt 11.58536814350817 -2.649970516125879 0
vt 11.606372761742843 -4.515574319771128 0
vt 14.365784314256294 -4.684574675408379 0
vt 14.364694806164334 -5.680555874891773 0
vt 17.746833024617008 -5.642737291951679 0
vt 17.72720943127136 -4.688251752714056 0
vn 0 0 1
vn 0 0 -1
usemtl floor_1
s off
f 11/6/1 13/7/1 9/5/1
f 10/5/2 14/7/2 12/6/2
f 13/7/1 7/4/1 9/5/1
f 10/5/2 8/4/2 14/7/2
f 7/4/1 19/10/1 5/3/1
f 6/3/2 20/10/2 8/4/2
f 19/10/1 3/2/1 5/3/1
f 6/3/2 4/2/2 20/10/2
f 19/10/1 1/1/1 3/2/1
f 4/2/2 2/1/2 20/10/2
f 17/9/1 19/10/1 15/8/1
f 16/8/2 20/10/2 18/9/2
f 19/10/1 13/7/1 15/8/1
f 16/8/2 14/7/2 20/10/2
f 19/10/1 7/4/1 13/7/1
f 14/7/2 8/4/2 20/10/2
