# The Great Editor v0.0.1
mtllib floor_1.mtl
o floor_1
v 20.36583999560735 -0.06652540299041969 0
v 20.36583999560735 -0.06652540299041969 -0.1
v 20.33437970650843 -1.698746374226628 0
v 20.33437970650843 -1.698746374226628 -0.1
v 19.047457255555827 -1.683125466792096 0
v 19.047457255555827 -1.683125466792096 -0.1
v 18.92194381050494 -2.5731894792156425 0
v 18.92194381050494 -2.5731894792156425 -0.1
v 11.56504259441498 -2.6108762838653874 0
v 11.56504259441498 -2.6108762838653874 -0.1
v 11.571269109965806 -1.6596394870828346 0
v 11.571269109965806 -1.6596394870828346 -0.1
v 6.795313208251293 -1.7282403952568635 0
v 6.795313208251293 -1.7282403952568635 -0.1
v 0.6710435969953171 -8.33238865238626 0
v 0.6710435969953171 -8.33238865238626 -0.1
v 0.6566242978249799 -25.509051077705756 0
v 0.6566242978249799 -25.509051077705756 -0.1
v 13.437803692719996 -39.358132508125145 0
v 13.437803692719996 -39.358132508125145 -0.1
v 16.932298999228248 -35.94982528529413 0
v 16.932298999228248 -35.94982528529413 -0.1
v 73.70391999783419 -35.98510887341549 0
v 73.70391999783419 -35.98510887341549 -0.1
v 121.0732840404608 -36.31183708416154 0
v 121.0732840404608 -36.31183708416154 -0.1
v 141.12714283583722 -37.388915037339764 0
v 141.12714283583722 -37.388915037339764 -0.1
v 141.19956704303368 -34.151126950909486 0
v 141.19956704303368 -34.151126950909486 -0.1
v 142.91513593295903 -34.151126950909486 0
v 142.91513593295903 -34.151126950909486 -0.1
v 142.91513593295903 -29.75345917818647 0
v 142.91513593295903 -29.75345917818647 -0.1
v 141.27210048734509 -29.801851220099042 0
v 141.27210048734509 -29.801851220099042 -0.1
v 141.05460939152582 -26.636487340865234 0
v 141.05460939152582 -26.636487340865234 -0.1
v 139.84644690043544 -26.684770145662874 0
v 139.84644690043544 -26.684770145662874 -0.1
v 139.894838942348 -25.28336719826699 0
v 139.894838942348 -25.28336719826699 -0.1
v 142.8909945305602 -23.688614557450673 0
v 142.8909945305602 -23.688614557450673 -0.1
v 142.86685312816138 -18.01046932355574 0
v 142.86685312816138 -18.01046932355574 -0.1
v 133.47792310020316 -17.953993735138585 0
v 133.47792310020316 -17.953993735138585 -0.1
v 133.60496586486303 -26.69492919735107 0
v 133.60496586486303 -26.69492919735107 -0.1
v 129.1604353698364 -26.73720396082774 0
v 129.1604353698364 -26.73720396082774 -0.1
v 129.1604353698364 -22.779543287029863 0
v 129.1604353698364 -22.779543287029863 -0.1
v 127.7635111441525 -22.843010050802334 0
v 127.7635111441525 -22.843010050802334 -0.1
v 127.7635111441525 -26.800779961715136 0
v 127.7635111441525 -26.800779961715136 -0.1
v 101.8159822871306 -26.673737197055267 0
v 101.8159822871306 -26.673737197055267 -0.1
v 101.85825705060726 -18.165695263866716 0
v 101.85825705060726 -18.165695263866716 -0.1
v 73.12245083507885 -18.120143386942242 0
v 73.12245083507885 -18.120143386942242 -0.1
v 73.12245083507885 -22.627375985936833 0
v 73.12245083507885 -22.627375985936833 -0.1
v 70.20680300056769 -26.30364185168328 0
v 70.20680300056769 -26.30364185168328 -0.1
v 52.28416031741309 -26.37530139907526 0
v 52.28416031741309 -26.37530139907526 -0.1
v 52.28416031741309 -27.281095556048264 0
v 52.28416031741309 -27.281095556048264 -0.1
v 27.479470156755326 -27.28054937047363 0
v 27.479470156755326 -27.28054937047363 -0.1
v 27.46341230086109 -26.317733439508835 0
v 27.46341230086109 -26.317733439508835 -0.1
v 28.185469630527223 -26.349849151297317 0
v 28.185469630527223 -26.349849151297317 -0.1
v 28.156521795071615 -18.056785860284702 0
v 28.156521795071615 -18.056785860284702 -0.1
v 23.482593358698733 -13.187213751077923 0
v 23.482593358698733 -13.187213751077923 -0.1
v 23.57588185484622 -8.805385360019294 0
v 23.57588185484622 -8.805385360019294 -0.1
v 23.51656610144097 -0.0835663929190001 0
v 23.51656610144097 -0.0835663929190001 -0.1
v 14.485567239019625 -8.614268142632035 0
v 14.485567239019625 -8.614268142632035 -0.1
v 24.385883613786717 -35.954457691502405 0
v 24.385883613786717 -35.954457691502405 -0.1
v 18.285567239019624 -8.614268142632035 0
v 18.285567239019624 -8.614268142632035 -0.1
v 14.485567239019625 -5.914268142632034 0
v 14.485567239019625 -5.914268142632034 -0.1
v 18.285567239019624 -5.914268142632034 0
v 18.285567239019624 -5.914268142632034 -0.1
v 125.80237970635297 -26.79117798531529 0
v 125.80237970635297 -26.79117798531529 -0.1
vt 20.36583999560735 -0.06652540299041969 0
vt 20.33437970650843 -1.698746374226628 0
vt 19.047457255555827 -1.683125466792096 0
vt 18.92194381050494 -2.5731894792156425 0
vt 11.56504259441498 -2.6108762838653874 0
vt 11.571269109965806 -1.6596394870828346 0
vt 6.795313208251293 -1.7282403952568635 0
vt 0.6710435969953171 -8.33238865238626 0
vt 0.6566242978249799 -25.509051077705756 0
vt 13.437803692719996 -39.358132508125145 0
vt 16.932298999228248 -35.94982528529413 0
vt 73.70391999783419 -35.98510887341549 0
vt 121.0732840404608 -36.31183708416154 0
vt 141.12714283583722 -37.388915037339764 0
vt 141.19956704303368 -34.151126950909486 0
vt 142.91513593295903 -34.151126950909486 0
vt 142.91513593295903 -29.75345917818647 0
vt 141.27210048734509 -29.801851220099042 0
vt 141.05460939152582 -26.636487340865234 0
vt 139.84644690043544 -26.684770145662874 0
vt 139.894838942348 -25.28336719826699 0
vt 142.8909945305602 -23.688614557450673 0
vt 142.86685312816138 -18.01046932355574 0
vt 133.47792310020316 -17.953993735138585 0
vt 133.60496586486303 -26.69492919735107 0
vt 129.1604353698364 -26.73720396082774 0
vt 129.1604353698364 -22.779543287029863 0
vt 127.7635111441525 -22.843010050802334 0
vt 127.7635111441525 -26.800779961715136 0
vt 101.8159822871306 -26.673737197055267 0
vt 101.85825705060726 -18.165695263866716 0
vt 73.12245083507885 -18.120143386942242 0
vt 73.12245083507885 -22.627375985936833 0
vt 70.20680300056769 -26.30364185168328 0
vt 52.28416031741309 -26.37530139907526 0
vt 52.28416031741309 -27.281095556048264 0
vt 27.479470156755326 -27.28054937047363 0
vt 27.46341230086109 -26.317733439508835 0
vt 28.185469630527223 -26.349849151297317 0
vt 28.156521795071615 -18.056785860284702 0
vt 23.482593358698733 -13.187213751077923 0
vt 23.57588185484622 -8.805385360019294 0
vt 23.51656610144097 -0.0835663929190001 0
vt 14.485567239019625 -8.614268142632035 0
vt 24.385883613786717 -35.954457691502405 0
vt 18.285567239019624 -8.614268142632035 0
vt 14.485567239019625 -5.914268142632034 0
vt 18.285567239019624 -5.914268142632034 0
vt 125.80237970635297 -26.79117798531529 0
vn 0 0 1
vn 0 0 -1
usemtl floor_1
s off
f 17/9/1 87/44/1 15/8/1
f 16/8/2 88/44/2 18/9/2
f 87/44/1 13/7/1 15/8/1
f 16/8/2 14/7/2 88/44/2
f 87/44/1 9/5/1 13/7/1
f 14/7/2 10/5/2 88/44/2
f 9/5/1 11/6/1 13/7/1
f 14/7/2 12/6/2 10/5/2
f 3/2/1 85/43/1 1/1/1
f 2/1/2 86/43/2 4/2/2
f 3/2/1 83/42/1 85/43/1
f 86/43/2 84/42/2 4/2/2
f 47/24/1 41/21/1 45/23/1
f 46/23/2 42/21/2 48/24/2
f 41/21/1 43/22/1 45/23/1
f 46/23/2 44/22/2 42/21/2
f 23/12/1 71/36/1 89/45/1
f 90/45/2 72/36/2 24/12/2
f 71/36/1 21/11/1 89/45/1
f 90/45/2 22/11/2 72/36/2
f 21/11/1 17/9/1 19/10/1
f 20/10/2 18/9/2 22/11/2
f 21/11/1 81/41/1 17/9/1
f 18/9/2 82/41/2 22/11/2
f 81/41/1 87/44/1 17/9/1
f 18/9/2 88/44/2 82/41/2
f 81/41/1 91/46/1 87/44/1
f 88/44/2 92/46/2 82/41/2
f 93/47/1 9/5/1 87/44/1
f 88/44/2 10/5/2 94/47/2
f 93/47/1 7/4/1 9/5/1
f 10/5/2 8/4/2 94/47/2
f 7/4/1 3/2/1 5/3/1
f 6/3/2 4/2/2 8/4/2
f 7/4/1 95/48/1 3/2/1
f 4/2/2 96/48/2 8/4/2
f 95/48/1 83/42/1 3/2/1
f 4/2/2 84/42/2 96/48/2
f 95/48/1 91/46/1 83/42/1
f 84/42/2 92/46/2 96/48/2
f 91/46/1 81/41/1 83/42/1
f 84/42/2 82/41/2 92/46/2
f 81/41/1 75/38/1 79/40/1
f 80/40/2 76/38/2 82/41/2
f 75/38/1 77/39/1 79/40/1
f 80/40/2 78/39/2 76/38/2
f 71/36/1 67/34/1 69/35/1
f 70/35/2 68/34/2 72/36/2
f 65/33/1 61/31/1 63/32/1
f 64/32/2 62/31/2 66/33/2
f 65/33/1 59/30/1 61/31/1
f 62/31/2 60/30/2 66/33/2
f 49/25/1 41/21/1 47/24/1
f 48/24/2 42/21/2 50/25/2
f 49/25/1 39/20/1 41/21/1
f 42/21/2 40/20/2 50/25/2
f 35/18/1 31/16/1 33/17/1
f 34/17/2 32/16/2 36/18/2
f 35/18/1 29/15/1 31/16/1
f 32/16/2 30/15/2 36/18/2
f 29/15/1 49/25/1 27/14/1
f 28/14/2 50/25/2 30/15/2
f 49/25/1 51/26/1 27/14/1
f 28/14/2 52/26/2 50/25/2
f 51/26/1 25/13/1 27/14/1
f 28/14/2 26/13/2 52/26/2
f 25/13/1 59/30/1 23/12/1
f 24/12/2 60/30/2 26/13/2
f 59/30/1 65/33/1 23/12/1
f 24/12/2 66/33/2 60/30/2
f 65/33/1 67/34/1 23/12/1
f 24/12/2 68/34/2 66/33/2
f 67/34/1 71/36/1 23/12/1
f 24/12/2 72/36/2 68/34/2
f 25/13/1 97/49/1 59/30/1
f 60/30/2 98/49/2 26/13/2
f 57/29/1 97/49/1 25/13/1
f 26/13/2 98/49/2 58/29/2
f 57/29/1 51/26/1 55/28/1
f 56/28/2 52/26/2 58/29/2
f 51/26/1 53/27/1 55/28/1
f 56/28/2 54/27/2 52/26/2
f 57/29/1 25/13/1 51/26/1
f 52/26/2 26/13/2 58/29/2
f 29/15/1 35/18/1 49/25/1
f 50/25/2 36/18/2 30/15/2
f 35/18/1 39/20/1 49/25/1
f 50/25/2 40/20/2 36/18/2
f 35/18/1 37/19/1 39/20/1
f 40/20/2 38/19/2 36/18/2
f 73/37/1 21/11/1 71/36/1
f 72/36/2 22/11/2 74/37/2
f 73/37/1 75/38/1 21/11/1
f 22/11/2 76/38/2 74/37/2
f 75/38/1 81/41/1 21/11/1
f 22/11/2 82/41/2 76/38/2
f 95/48/1 7/4/1 93/47/1
f 94/47/2 8/4/2 96/48/2
