# The Great Editor v0.0.1
mtllib floor_1.mtl
o floor_1
v 15.294612305176338 98.81954952417618 0
v 15.294612305176338 98.81954952417618 -0.1
v 1.668081423962707 98.76489197896784 0
v 1.668081423962707 98.76489197896784 -0.1
v 0.878471652319238 87.23725446654247 0
v 0.878471652319238 87.23725446654247 -0.1
v 6.957466149586166 87.21100291590919 0
v 6.957466149586166 87.21100291590919 -0.1
v 9.672120607998712 67.13639688146363 0
v 9.672120607998712 67.13639688146363 -0.1
v 9.65757257868999 64.45147808801377 0
v 9.65757257868999 64.45147808801377 -0.1
v -0.47381716764635984 64.43615748631889 0
v -0.47381716764635984 64.43615748631889 -0.1
v -0.36763686019571784 24.23519422296586 0
v -0.36763686019571784 24.23519422296586 -0.1
v 0.5250652904276136 16.87977918468735 0
v 0.5250652904276136 16.87977918468735 -0.1
v 5.076814476487858 17.329636139253267 0
v 5.076814476487858 17.329636139253267 -0.1
v 8.022704596825447 -13.492539320224267 0
v 8.022704596825447 -13.492539320224267 -0.1
v 16.690224297830852 -22.2818596216904 0
v 16.690224297830852 -22.2818596216904 -0.1
v 24.115335906510754 -22.202180783615802 0
v 24.115335906510754 -22.202180783615802 -0.1
v 20.514266908624403 -18.362075806932452 0
v 20.514266908624403 -18.362075806932452 -0.1
v 20.314569893830825 -3.636846499466486 0
v 20.314569893830825 -3.636846499466486 -0.1
v 19.962759434850618 9.689024777476007 0
v 19.962759434850618 9.689024777476007 -0.1
v 22.50766821258713 9.772690518280442 0
v 22.50766821258713 9.772690518280442 -0.1
v 22.45150718712191 58.719586096294066 0
v 22.45150718712191 58.719586096294066 -0.1
v 20.382789085146122 58.62230724652557 0
v 20.382789085146122 58.62230724652557 -0.1
v 19.739133282988103 63.7072697668166 0
v 19.739133282988103 63.7072697668166 -0.1
v 14.485567239019625 -8.614268142632035 0
v 14.485567239019625 -8.614268142632035 -0.1
v 14.485567239019625 -5.914268142632034 0
v 14.485567239019625 -5.914268142632034 -0.1
v 5.9694215995135815 7.990491691080328 0
v 5.9694215995135815 7.990491691080328 -0.1
v 20.18120299533906 60.214862938316365 0
v 20.18120299533906 60.214862938316365 -0.1
v 18.285567239019624 -8.614268142632035 0
v 18.285567239019624 -8.614268142632035 -0.1
v 18.285567239019624 -5.914268142632034 0
v 18.285567239019624 -5.914268142632034 -0.1
vt 15.294612305176338 98.81954952417618 0
vt 1.668081423962707 98.76489197896784 0
vt 0.878471652319238 87.23725446654247 0
vt 6.957466149586166 87.21100291590919 0
vt 9.672120607998712 67.13639688146363 0
vt 9.65757257868999 64.45147808801377 0
vt -0.47381716764635984 64.43615748631889 0
vt -0.36763686019571784 24.23519422296586 0
vt 0.5250652904276136 16.87977918468735 0
vt 5.076814476487858 17.329636139253267 0
vt 8.022704596825447 -13.492539320224267 0
vt 16.690224297830852 -22.2818596216904 0
vt 24.115335906510754 -22.202180783615802 0
vt 20.514266908624403 -18.362075806932452 0
vt 20.314569893830825 -3.636846499466486 0
vt 19.962759434850618 9.689024777476007 0
vt 22.50766821258713 9.772690518280442 0
vt 22.45150718712191 58.719586096294066 0
vt 20.382789085146122 58.62230724652557 0
vt 19.739133282988103 63.7072697668166 0
vt 14.485567239019625 -8.614268142632035 0
vt 14.485567239019625 -5.914268142632034 0
vt 5.9694215995135815 7.990491691080328 0
vt 20.18120299533906 60.214862938316365 0
vt 18.285567239019624 -8.614268142632035 0
vt 18.285567239019624 -5.914268142632034 0
vn 0 0 1
vn 0 0 -1
usemtl floor_1
s off
f 5/3/1 7/4/1 3/2/1
f 4/2/2 8/4/2 6/3/2
f 7/4/1 1/1/1 3/2/1
f 4/2/2 2/1/2 8/4/2
f 39/20/1 1/1/1 7/4/1
f 8/4/2 2/1/2 40/20/2
f 25/13/1 27/14/1 23/12/1
f 24/12/2 28/14/2 26/13/2
f 27/14/1 21/11/1 23/12/1
f 24/12/2 22/11/2 28/14/2
f 27/14/1 41/21/1 21/11/1
f 22/11/2 42/21/2 28/14/2
f 41/21/1 43/22/1 21/11/1
f 22/11/2 44/22/2 42/21/2
f 21/11/1 43/22/1 45/23/1
f 46/23/2 44/22/2 22/11/2
f 45/23/1 43/22/1 19/10/1
f 20/10/2 44/22/2 46/23/2
f 19/10/1 15/8/1 17/9/1
f 18/9/2 16/8/2 20/10/2
f 19/10/1 37/19/1 15/8/1
f 16/8/2 38/19/2 20/10/2
f 37/19/1 11/6/1 15/8/1
f 16/8/2 12/6/2 38/19/2
f 11/6/1 13/7/1 15/8/1
f 16/8/2 14/7/2 12/6/2
f 9/5/1 39/20/1 7/4/1
f 8/4/2 40/20/2 10/5/2
f 9/5/1 47/24/1 39/20/1
f 40/20/2 48/24/2 10/5/2
f 37/19/1 47/24/1 9/5/1
f 10/5/2 48/24/2 38/19/2
f 37/19/1 19/10/1 35/18/1
f 36/18/2 20/10/2 38/19/2
f 19/10/1 33/17/1 35/18/1
f 36/18/2 34/17/2 20/10/2
f 29/15/1 49/25/1 27/14/1
f 28/14/2 50/25/2 30/15/2
f 49/25/1 41/21/1 27/14/1
f 28/14/2 42/21/2 50/25/2
f 51/26/1 29/15/1 43/22/1
f 44/22/2 30/15/2 52/26/2
f 29/15/1 31/16/1 43/22/1
f 44/22/2 32/16/2 30/15/2
f 31/16/1 19/10/1 43/22/1
f 44/22/2 20/10/2 32/16/2
f 31/16/1 33/17/1 19/10/1
f 20/10/2 34/17/2 32/16/2
f 51/26/1 49/25/1 29/15/1
f 30/15/2 50/25/2 52/26/2
f 9/5/1 11/6/1 37/19/1
f 38/19/2 12/6/2 10/5/2
